<svg version="1.1" id="Layer_1" xmlns="http://www.w3.org/2000/svg" xmlns:xlink="http://www.w3.org/1999/xlink" x="0px" y="0px"
	 width="100%" viewBox="0 0 1024 672" enable-background="new 0 0 1024 672" xml:space="preserve">
<path fill="#000000" opacity="1.000000" stroke="none" 
	d="
M283.715973,318.805023 
	C291.929169,297.867676 301.694580,278.047882 311.766022,257.689453 
	C306.098358,257.342773 301.621063,259.229919 297.048309,260.289124 
	C275.915527,265.184174 255.229218,271.389496 236.106064,281.952026 
	C234.364182,282.914154 232.710876,284.039825 231.037247,285.121735 
	C225.984818,288.387848 221.811661,287.275452 219.511139,281.552399 
	C215.843246,272.427704 218.139786,264.196625 224.317429,256.981293 
	C229.801819,250.575638 237.304031,247.229218 245.005997,244.395462 
	C262.583832,237.928116 280.922821,234.582062 299.349579,231.890289 
	C340.572754,225.868454 382.042236,223.259857 423.706543,223.825348 
	C432.538879,223.945236 441.326904,224.575836 450.066223,225.853760 
	C451.215881,226.021881 452.356598,226.298737 453.476166,226.614761 
	C455.410065,227.160645 457.620148,227.679626 457.889618,230.050415 
	C458.170746,232.523666 455.967072,233.365265 454.177612,234.168167 
	C446.182526,237.755493 437.579315,239.072601 429.030579,240.245377 
	C403.167114,243.793518 377.271362,247.113846 351.364685,250.333450 
	C346.413635,250.948746 343.542114,252.984039 341.376556,257.705688 
	C326.503815,290.132843 312.673981,322.919067 304.914459,357.912323 
	C302.304352,369.683228 300.995117,381.543762 304.443542,393.445007 
	C305.765808,398.008392 303.379669,400.558289 299.269287,401.483612 
	C282.329254,405.297119 264.793152,397.949585 268.121521,372.211975 
	C270.511292,353.732147 276.835693,336.384003 283.715973,318.805023 
z"/>
<path fill="#000000" opacity="1.000000" stroke="none" 
	d="
M725.715881,360.566681 
	C711.287109,354.237946 706.090332,343.934448 709.216492,328.491394 
	C711.586853,316.781830 716.732300,306.128906 721.684326,295.389038 
	C723.300598,291.883759 725.740173,288.568115 725.339294,284.144501 
	C722.118225,283.485382 720.033813,285.304382 717.999634,286.865265 
	C705.706726,296.298035 695.988037,308.109955 687.147400,320.692657 
	C680.725647,329.832642 674.898804,339.332642 669.864868,349.329651 
	C666.378540,356.253113 653.906921,358.636230 647.958740,353.705139 
	C645.388977,351.574738 644.877075,348.759705 645.429199,345.564484 
	C647.821899,331.715179 652.330811,318.479156 657.274658,305.401306 
	C669.253723,273.713165 683.656433,243.181229 701.237671,214.177490 
	C705.733643,206.760391 710.221191,199.651733 720.139648,198.975845 
	C724.734192,198.662735 729.152222,199.093857 733.304749,201.037811 
	C737.796692,203.140671 738.484314,206.354538 735.525635,210.261353 
	C717.228821,234.421432 703.031189,260.971466 690.091309,288.251587 
	C689.475342,289.550354 689.093628,290.960266 688.104980,293.696045 
	C697.387085,283.297668 705.867310,274.175964 716.371277,267.287384 
	C725.058228,261.590393 734.299988,257.642578 745.017822,259.476044 
	C755.445984,261.259979 760.093750,269.074707 756.105042,278.971802 
	C752.125671,288.845673 747.297241,298.373810 743.064758,308.150360 
	C739.953369,315.337311 737.437439,322.726227 736.737732,330.639618 
	C735.992188,339.070007 739.868225,343.891785 748.229919,343.947357 
	C760.542847,344.029205 770.282593,338.522461 778.129883,329.328583 
	C779.714600,327.471954 780.785400,324.806793 783.944275,325.497986 
	C787.045471,326.176544 787.883606,328.920685 788.686096,331.425415 
	C791.260010,339.459473 787.516357,348.337311 778.423767,353.779938 
	C762.068420,363.569763 744.530640,365.951447 725.715881,360.566681 
z"/>
<path fill="#000000" opacity="1.000000" stroke="none" 
	d="
M433.968323,306.103241 
	C437.545654,296.712128 441.646301,287.874634 444.247009,278.615875 
	C446.637360,270.105896 463.678497,267.449219 469.926819,271.673462 
	C472.672699,273.529877 472.403687,276.117401 471.197235,278.785126 
	C467.976044,285.907715 464.760254,293.032837 461.844971,300.418030 
	C469.257202,292.703339 476.621002,284.996033 485.061401,278.442047 
	C492.977570,272.295105 501.528015,267.643005 511.904175,267.785492 
	C523.809021,267.948975 528.783630,275.207520 524.610107,286.446808 
	C519.802917,299.392639 512.856567,311.480042 509.042511,324.826569 
	C508.038757,328.339172 507.129547,331.912933 506.605225,335.520844 
	C505.696686,341.771851 509.777679,345.220367 515.733704,343.241577 
	C520.098145,341.791534 523.252014,339.515411 524.531982,334.254852 
	C529.637207,313.271729 538.292969,293.614288 548.266418,274.524658 
	C550.873230,269.535065 555.421875,267.911285 560.734497,267.667175 
	C575.977783,266.966766 577.768066,269.643219 571.174316,283.000122 
	C561.928162,301.729828 554.203003,321.003326 550.921204,341.790802 
	C550.559692,344.080475 550.176697,346.444885 550.367249,348.727570 
	C550.778381,353.651611 548.324097,356.190826 543.938721,357.398315 
	C537.886536,359.064758 531.884949,359.270660 527.047546,354.643188 
	C524.492004,352.198547 522.792297,352.477112 520.271301,354.405090 
	C514.736633,358.637848 508.416565,360.937927 501.448151,361.769287 
	C486.524780,363.549683 476.680176,353.194305 479.281921,338.296112 
	C481.369232,326.343719 486.262634,315.428345 491.370880,304.554901 
	C492.913177,301.272034 495.570221,298.106506 494.241486,293.716553 
	C489.942810,294.168518 487.174133,296.909607 484.302673,299.317719 
	C470.541840,310.857910 461.061310,325.772095 451.922577,340.908691 
	C448.656250,346.318817 445.867920,352.017914 442.870331,357.589905 
	C439.381866,364.074310 425.653229,367.041016 419.800903,362.554047 
	C416.895111,360.326202 417.188202,357.471283 418.188385,354.419403 
	C423.424072,338.443634 428.624786,322.456421 433.968323,306.103241 
z"/>
<path fill="#000000" opacity="1.000000" stroke="none" 
	d="
M426.813507,295.593079 
	C427.811279,314.504028 420.921936,330.272217 409.288513,344.003815 
	C396.768005,358.782471 380.989471,367.970398 361.276093,369.662323 
	C341.056549,371.397766 326.654083,358.417175 326.667236,338.253387 
	C326.689087,304.802795 354.281952,273.773651 387.566467,269.546326 
	C392.076447,268.973541 396.426239,268.781036 400.931305,269.538330 
	C416.043549,272.078613 424.293671,280.163605 426.813507,295.593079 
M386.398956,337.896332 
	C390.928192,333.583832 394.113068,328.308807 396.859528,322.790466 
	C400.237701,316.002838 402.263031,308.810455 401.745819,301.142761 
	C401.118317,291.840424 395.226501,287.401611 386.175934,289.208832 
	C367.976715,292.842926 349.833405,319.908264 353.509094,337.939697 
	C355.221710,346.341034 361.455048,350.138031 369.806366,348.052002 
	C376.181671,346.459564 381.142914,342.635345 386.398956,337.896332 
z"/>
<path fill="#000000" opacity="1.000000" stroke="none" 
	d="
M566.611084,334.638000 
	C568.351379,333.049377 569.741638,331.584045 571.349304,330.418671 
	C574.671448,328.010376 577.852661,326.757385 580.148010,331.829834 
	C581.059814,333.844910 583.071106,334.985535 584.961792,336.067474 
	C593.130371,340.742035 601.763733,341.035278 610.554443,338.412994 
	C613.841797,337.432343 616.836365,335.361603 617.228333,331.667633 
	C617.618774,327.988647 614.585754,326.098450 611.799316,324.582184 
	C608.588745,322.835083 605.158752,321.496124 601.866028,319.893768 
	C597.524414,317.781036 593.081055,315.825989 588.931824,313.378662 
	C576.414368,305.995331 573.896301,294.042938 582.135742,281.985748 
	C586.604736,275.446045 592.799255,270.995117 599.958984,267.935242 
	C616.670532,260.793152 633.721436,259.196716 650.976807,265.837433 
	C658.355713,268.677185 658.969482,271.688110 653.811829,277.590149 
	C651.845886,279.839844 649.703003,281.981873 647.399170,283.879669 
	C642.211792,288.152740 640.281677,288.030579 635.071777,283.577332 
	C633.781860,282.474701 632.363892,281.582214 630.664734,281.373077 
	C623.204712,280.454865 616.007324,281.172821 609.467957,285.230438 
	C603.559937,288.896301 603.525940,293.656189 609.457642,297.082733 
	C612.475159,298.825806 615.714722,300.191498 618.884399,301.662018 
	C621.753601,302.993164 624.670898,304.220276 627.555664,305.518280 
	C651.445007,316.266815 645.718506,340.056396 631.281372,349.845062 
	C611.904114,362.983185 591.035095,363.899567 570.054993,353.927185 
	C558.701904,348.530792 558.338135,344.662872 566.611084,334.638000 
z"/>
<path fill="#000000" opacity="1.000000" stroke="none" 
	d="
M402.544373,395.614777 
	C384.563599,399.477325 366.999573,403.241882 349.722107,408.232147 
	C346.846863,409.062592 342.719238,411.114075 341.280304,407.407990 
	C339.897583,403.846619 344.291870,402.382202 346.870667,400.866211 
	C361.544708,392.240112 377.789154,387.777039 394.123474,383.789703 
	C421.143707,377.193939 448.604767,373.325806 476.280853,370.514557 
	C511.637634,366.923096 547.053955,366.000305 582.506836,367.105225 
	C614.434143,368.100250 646.302734,370.304291 677.545227,377.747772 
	C681.111511,378.597443 681.351379,378.664429 684.310791,381.019104 
	C681.934326,384.506165 678.335266,383.245880 675.328369,383.088867 
	C666.031250,382.603302 656.751282,381.778107 647.467529,381.048523 
	C629.869263,379.665588 612.242493,379.301270 594.594482,379.175934 
	C573.269592,379.024536 551.948425,379.250458 530.668396,380.444427 
	C507.102173,381.766632 483.591614,383.781891 460.151245,386.822632 
	C441.012299,389.305420 422.010284,392.544556 402.544373,395.614777 
z"/>
<path fill="#000000" opacity="1.000000" stroke="none" 
	d="
M494.294556,410.394470 
	C501.957550,402.350647 512.314758,400.238861 521.309509,404.646515 
	C529.452759,408.636932 533.961304,417.768768 532.412659,427.135559 
	C530.987061,435.757935 524.858704,442.287811 516.387085,444.210907 
	C507.582764,446.209503 498.587128,443.045654 493.751007,436.249634 
	C488.636200,429.061920 488.316193,419.717560 492.938873,412.326874 
	C493.291138,411.763672 493.688934,411.228943 494.294556,410.394470 
z"/>
<path fill="#000000" opacity="1.000000" stroke="none" 
	d="
M605.785156,429.373962 
	C602.561096,438.083893 596.956177,443.415009 587.851685,444.334137 
	C578.422058,445.286072 570.825684,442.293396 566.023376,433.670776 
	C561.859619,426.194946 562.866577,416.393463 568.471008,409.934418 
	C574.379578,403.124878 584.279602,400.687012 592.994995,403.895447 
	C601.117920,406.885803 606.644836,414.891357 606.481873,423.561615 
	C606.447693,425.378998 606.123596,427.190918 605.785156,429.373962 
z"/>
<path fill="#000000" opacity="1.000000" stroke="none" 
	d="
M457.386566,430.818420 
	C453.844452,439.277161 447.995697,443.885101 439.047302,444.417999 
	C430.398926,444.933075 423.271423,442.396332 418.717194,434.651794 
	C414.048950,426.713196 414.874054,416.554626 420.510529,409.910339 
	C426.482910,402.870209 436.475891,400.537140 445.498047,404.076538 
	C453.793884,407.330994 458.623413,414.980530 458.393036,424.558594 
	C458.345245,426.545074 458.403717,428.561249 457.386566,430.818420 
z"/>
<path fill="#000000" opacity="1.000000" stroke="none" 
	d="
M579.401611,256.620544 
	C574.630432,259.328857 569.894287,260.600494 564.733948,260.295044 
	C555.896667,259.771942 551.297974,252.921753 554.246887,244.559296 
	C557.538147,235.225922 571.493347,227.369049 581.063782,229.461136 
	C588.385132,231.061569 591.613708,236.471649 589.544312,243.644608 
	C587.942810,249.195755 584.528137,253.341537 579.401611,256.620544 
z"/>
</svg>